# xmcd
#
# Track frame offsets: 
#        150
#        10108
#        22222
#        31202
#        41695
#        52922
#        62965
#        72645
#        82637
#        92738
#        102394
#        111748
#        122243
#        132777
#        143088
#        153081
#        163681
#        174513
#        184449
#        194721
#        203904
#        213821
#        224414
#        234229
#        247207
#        256653
#        266356
#        277013
#        287389
#        299732
#        310903
#        321878
#
# Disc length: 4437 seconds
#
# Revision: 0
# Processed by: cddbd v1.5.2PL0 Copyright (c) Steve Scherf et al.
# Submitted via: ExactAudioCopyFreeDBPlugin 1.0
#
DISCID=e8115320
DTITLE=Chet Atkins - The Early Years - 1946-1949 C
DYEAR=1900
DGENRE=Country
TTITLE0=Dream Train
TTITLE1=Meet Mister Callaghan
TTITLE2=Chinatown, My Chinatown
TTITLE3=High Rockin' Swing
TTITLE4=Pig Leaf Rag
TTITLE5=Oh By Jingo
TTITLE6=Hello Ma Baby
TTITLE7=The Bells of St. Mary's
TTITLE8=Country Gentlemen
TTITLE9=Memphis Blues
TTITLE10=Alice Blue Gown
TTITLE11=Twelfth Street Rag
TTITLE12=Peeping Tom
TTITLE13=Three O'Clock in the Morning
TTITLE14=Georgia Camp Meeting
TTITLE15=City Slicker
TTITLE16=Dill Pickle Rag
TTITLE17=Rubber Doll Rag
TTITLE18=Beautiful Ohio
TTITLE19=Kentucky Derby
TTITLE20=Wildwood Flower
TTITLE21=Guitars on Parade
TTITLE22=Simple Simon
TTITLE23=Get Up and Go
TTITLE24=Pagan Love Song
TTITLE25=Beautiful Ohio 2
TTITLE26=Downhill Drag
TTITLE27=Avalon
TTITLE28=Sunrise Serenade
TTITLE29=San Antonio Rose
TTITLE30=Set a Spell
TTITLE31=Mister Misery
EXTD=
EXTT0=
EXTT1=
EXTT2=
EXTT3=
EXTT4=
EXTT5=
EXTT6=
EXTT7=
EXTT8=
EXTT9=
EXTT10=
EXTT11=
EXTT12=
EXTT13=
EXTT14=
EXTT15=
EXTT16=
EXTT17=
EXTT18=
EXTT19=
EXTT20=
EXTT21=
EXTT22=
EXTT23=
EXTT24=
EXTT25=
EXTT26=
EXTT27=
EXTT28=
EXTT29=
EXTT30=
EXTT31=
PLAYORDER=
